<mxfile host="app.diagrams.net" modified="2021-10-27T10:34:58.883Z" agent="5.0 (Macintosh; Intel Mac OS X 10_15_7) AppleWebKit/537.36 (KHTML, like Gecko) Chrome/86.0.4240.193 Safari/537.36" etag="UwVbj-hBxZV7rLNfLe37" version="15.5.9" type="github">
  <diagram id="yc1jU8xnsow3rvAKkSJZ" name="Page-1">
    <mxGraphModel dx="946" dy="536" grid="1" gridSize="10" guides="1" tooltips="1" connect="1" arrows="1" fold="1" page="1" pageScale="1" pageWidth="827" pageHeight="1169" math="0" shadow="0">
      <root>
        <mxCell id="0" />
        <mxCell id="1" parent="0" />
        <mxCell id="hRFx6h7XWbWLbs8NjlhR-3" style="edgeStyle=orthogonalEdgeStyle;rounded=0;orthogonalLoop=1;jettySize=auto;html=1;exitX=1;exitY=0.25;exitDx=0;exitDy=0;entryX=0;entryY=0.25;entryDx=0;entryDy=0;" edge="1" parent="1" source="hRFx6h7XWbWLbs8NjlhR-1" target="hRFx6h7XWbWLbs8NjlhR-2">
          <mxGeometry relative="1" as="geometry" />
        </mxCell>
        <mxCell id="hRFx6h7XWbWLbs8NjlhR-1" value="TC" style="rounded=0;whiteSpace=wrap;html=1;fillColor=#dae8fc;strokeColor=#6c8ebf;" vertex="1" parent="1">
          <mxGeometry y="190" width="120" height="60" as="geometry" />
        </mxCell>
        <mxCell id="hRFx6h7XWbWLbs8NjlhR-4" style="edgeStyle=orthogonalEdgeStyle;rounded=0;orthogonalLoop=1;jettySize=auto;html=1;exitX=0;exitY=0.75;exitDx=0;exitDy=0;entryX=1;entryY=0.75;entryDx=0;entryDy=0;" edge="1" parent="1" source="hRFx6h7XWbWLbs8NjlhR-2" target="hRFx6h7XWbWLbs8NjlhR-1">
          <mxGeometry relative="1" as="geometry" />
        </mxCell>
        <mxCell id="hRFx6h7XWbWLbs8NjlhR-2" value="RM" style="rounded=0;whiteSpace=wrap;html=1;fillColor=#ffe6cc;strokeColor=#d79b00;" vertex="1" parent="1">
          <mxGeometry x="560" y="190" width="120" height="60" as="geometry" />
        </mxCell>
        <mxCell id="hRFx6h7XWbWLbs8NjlhR-11" value="&lt;div&gt;发送消息，MessageId为1&lt;/div&gt;&lt;div&gt;并将对应的Future阻塞&lt;/div&gt;" style="text;html=1;align=center;verticalAlign=middle;resizable=0;points=[];autosize=1;strokeColor=none;fillColor=none;" vertex="1" parent="1">
          <mxGeometry x="260" y="160" width="150" height="30" as="geometry" />
        </mxCell>
        <mxCell id="hRFx6h7XWbWLbs8NjlhR-13" value="&lt;div&gt;&lt;br&gt;&lt;/div&gt;&lt;div&gt;请求对应的响应消息MessageId也为1，根据id找到对应的Future&lt;/div&gt;&lt;div&gt;并将消息内容放到Future中，将Future设置为完成，此时TC端获取到结果&lt;/div&gt;" style="text;html=1;align=center;verticalAlign=middle;resizable=0;points=[];autosize=1;strokeColor=none;fillColor=none;" vertex="1" parent="1">
          <mxGeometry x="135" y="245" width="400" height="50" as="geometry" />
        </mxCell>
      </root>
    </mxGraphModel>
  </diagram>
</mxfile>
